HIERARCHY
ROOT ROOT
{
	OFFSET 0.000000 56.020000 -5.659234
	CHANNELS 6 Xposition Yposition Zposition Xrotation Yrotation Zrotation 
	JOINT C_spine0001_bind_JNT
	{
		OFFSET 0.000000 1.618999 0.000000
		CHANNELS 3 Xrotation Yrotation Zrotation
		JOINT C_spine0002_bind_JNT
		{
			OFFSET 0.000000 4.942001 0.000001
			CHANNELS 3 Xrotation Yrotation Zrotation
			JOINT C_spine0003_bind_JNT
			{
				OFFSET 0.000000 4.942001 -0.000000
				CHANNELS 3 Xrotation Yrotation Zrotation
				JOINT C_neck0001_bind_JNT
				{
					OFFSET 0.000000 17.026009 -0.000000
					CHANNELS 3 Xrotation Yrotation Zrotation
					JOINT C_neck0002_bind_JNT
					{
						OFFSET 0.000000 3.249985 0.000000
						CHANNELS 3 Xrotation Yrotation Zrotation
						JOINT C_head_bind_JNT
						{
							OFFSET 0.000000 5.278008 0.000000
							CHANNELS 3 Xrotation Yrotation Zrotation
							End Site
							{
								OFFSET 0.000000 0.000000 0.000000
							}
						}
					}
				}
				JOINT L_clavicle_bind_JNT
				{
					OFFSET 4.590000 12.067001 0.834000
					CHANNELS 3 Xrotation Yrotation Zrotation
					JOINT L_armUpper0001_bind_JNT
					{
						OFFSET 7.812635 0.512001 -3.452945
						CHANNELS 3 Xrotation Yrotation Zrotation
						JOINT L_armLower0001_bind_JNT
						{
							OFFSET 15.265892 -6.552116 -0.058157
							CHANNELS 3 Xrotation Yrotation Zrotation
							JOINT L_hand0001_bind_JNT
							{
								OFFSET 14.747667 -6.369995 5.049225
								CHANNELS 3 Xrotation Yrotation Zrotation
								End Site
								{
									OFFSET 0.000000 0.000000 0.000000
								}
							}
						}
					}
				}
				JOINT R_clavicle_bind_JNT
				{
					OFFSET -4.590000 12.067001 0.834000
					CHANNELS 3 Xrotation Yrotation Zrotation
					JOINT R_armUpper0001_bind_JNT
					{
						OFFSET -7.812635 0.512001 -3.452945
						CHANNELS 3 Xrotation Yrotation Zrotation
						JOINT R_armLower0001_bind_JNT
						{
							OFFSET -15.265890 -6.552124 -0.058160
							CHANNELS 3 Xrotation Yrotation Zrotation
							JOINT R_hand0001_bind_JNT
							{
								OFFSET -14.746784 -6.369629 5.048937
								CHANNELS 3 Xrotation Yrotation Zrotation
								End Site
								{
									OFFSET 0.000000 0.000000 0.000000
								}
							}
						}
					}
				}
			}
		}
	}
	JOINT C_pelvis0001_bind_JNT
	{
		OFFSET -0.000000 0.000000 0.000000
		CHANNELS 3 Xrotation Yrotation Zrotation
		JOINT L_legUpper0001_bind_JNT
		{
			OFFSET 6.599999 -6.027000 0.539000
			CHANNELS 3 Xrotation Yrotation Zrotation
			JOINT L_legLower0001_bind_JNT
			{
				OFFSET -0.140713 -19.187443 0.040261
				CHANNELS 3 Xrotation Yrotation Zrotation
				JOINT L_foot0001_bind_JNT
				{
					OFFSET -0.132215 -18.028637 -1.138370
					CHANNELS 3 Xrotation Yrotation Zrotation
					JOINT L_foot0002_bind_JNT
					{
						OFFSET 0.007014 -4.693133 9.886524
						CHANNELS 3 Xrotation Yrotation Zrotation
						End Site
						{
							OFFSET 0.000000 0.000000 0.000000
						}
					}
				}
			}
		}
		JOINT R_legUpper0001_bind_JNT
		{
			OFFSET -6.599999 -6.027000 0.539000
			CHANNELS 3 Xrotation Yrotation Zrotation
			JOINT R_legLower0001_bind_JNT
			{
				OFFSET 0.140710 -19.187164 0.040550
				CHANNELS 3 Xrotation Yrotation Zrotation
				JOINT R_foot0001_bind_JNT
				{
					OFFSET 0.132215 -18.028633 -1.138362
					CHANNELS 3 Xrotation Yrotation Zrotation
					JOINT R_foot0002_bind_JNT
					{
						OFFSET -0.007014 -4.693128 9.886505
						CHANNELS 3 Xrotation Yrotation Zrotation
						End Site
						{
							OFFSET 0.000000 0.000000 0.000000
						}
					}
				}
			}
		}
	}
}
MOTION
Frames: 16
Frame Time: 0.033333
9.711749 47.633862 46.929459 0.016958 -3.386708 -0.040636 5.512293 9.714674 1.599444 -1.766417 1.777511 1.291500 7.248846 1.008363 2.851439 25.202593 -4.991784 2.124785 0.104365 -0.389278 -0.013174 10.025994 -9.178210 3.905361 21.019724 -1.640242 16.883167 -21.290962 -5.853372 -78.130470 22.780167 0.824258 2.471990 0.857948 -10.181465 -23.077438 15.206701 -5.394041 -14.485887 -44.577145 21.998476 75.258652 25.458796 17.363903 5.050465 12.099752 11.700377 26.851360 3.409415 5.623015 -0.165696 -25.632519 12.468176 13.496891 5.731889 -3.437719 -2.818327 -2.211663 3.916458 -5.456109 -1.393358 0.055983 -0.496361 3.292339 -14.165830 1.496365 12.372111 -0.086489 0.440145 -13.476099 -7.612329 -1.951283 -5.056374 -0.257561 -0.065335 
10.018499 47.525650 47.515877 0.025052 -3.275659 -0.046213 5.436945 9.061903 1.384134 -1.849736 1.897454 1.209426 7.240250 1.175704 2.853657 24.960779 -4.972599 2.192480 0.050987 -0.293168 -0.101412 9.626237 -9.192778 4.038350 20.937166 -1.979958 16.517271 -20.530245 -5.570051 -77.572701 22.375364 0.952347 2.164456 1.078599 -10.417346 -22.809616 15.261425 -4.941429 -14.048577 -44.642632 22.074430 75.360100 25.910172 18.180222 5.206452 12.370508 11.603125 26.701229 3.342056 4.736042 -0.236849 -26.629906 12.790299 13.936031 6.367400 -3.433304 -2.978877 -0.832348 3.743063 -5.167015 -0.810594 0.100991 -0.805436 3.838072 -13.941128 1.127539 12.694174 0.035858 0.353210 -13.829437 -7.488952 -1.406478 -5.368364 -0.196818 -0.065625 
10.339737 47.435127 48.084930 0.010995 -3.496106 -0.039168 5.526329 8.796324 1.079914 -1.899415 1.943646 1.293177 7.137932 1.282095 2.767522 24.709530 -5.056988 2.175977 0.076048 -0.327819 -0.034319 9.290166 -9.191657 3.918040 20.774778 -2.232312 16.252890 -20.061741 -5.331942 -77.112717 22.289986 1.051580 2.007679 1.101576 -10.665212 -22.656944 15.209126 -4.799606 -13.687938 -44.737232 22.245312 75.569962 26.301552 18.741226 5.165804 12.506502 11.523915 26.613106 3.328242 4.293203 -0.284267 -27.350765 12.914788 14.125668 7.305488 -3.309712 -3.138559 0.666481 3.590479 -5.467015 -0.381176 0.202704 -0.903958 4.209949 -13.931070 0.793330 13.159530 0.267861 0.139424 -14.321031 -7.404646 -0.878838 -5.650579 -0.216511 -0.026587 
10.731984 47.268059 48.718266 0.024244 -3.569125 -0.041386 5.535572 8.294879 0.797784 -1.984106 2.030068 1.230282 7.055573 1.371017 2.764056 24.580173 -4.982414 2.135495 0.030430 -0.255393 0.001208 8.883457 -9.207608 3.941179 20.678101 -2.277319 15.977314 -19.743776 -5.119070 -76.670586 22.066395 1.190230 1.783542 1.191163 -10.737652 -22.577982 15.321815 -4.467787 -13.500981 -44.756413 22.193977 75.766335 26.671951 19.330275 5.056809 12.751059 11.517362 26.688303 3.349490 3.660073 -0.536709 -28.300758 13.169155 14.333800 9.088324 -2.962650 -3.388703 2.321991 3.188272 -5.450827 -0.389507 0.078674 -0.907589 4.571694 -14.019480 0.488331 13.756871 0.410459 -0.040358 -14.835720 -7.163244 -0.112435 -5.984576 -0.044388 -0.104491 
11.124738 47.130482 49.388020 0.013631 -3.787879 -0.038601 5.652492 8.015051 0.544533 -2.055905 2.081128 1.276401 7.007030 1.441665 2.711559 24.292599 -5.101165 2.070599 0.110748 -0.168956 0.000902 8.581568 -9.354751 3.774192 20.517120 -2.193765 15.896113 -19.634027 -4.973379 -76.436058 22.094404 1.227318 1.745650 1.134418 -11.003421 -22.732889 15.367105 -4.339022 -13.482412 -44.971272 22.198452 76.170853 27.028713 19.662548 4.890701 12.653715 11.544624 26.653753 3.426430 3.262555 -0.726377 -28.647898 13.532558 14.275555 10.532858 -2.660192 -3.501745 3.787050 2.741511 -5.780004 -0.365704 0.114183 -0.851455 4.874872 -14.143045 0.208650 14.399148 0.566526 -0.241796 -15.376922 -7.065062 0.509590 -6.278165 0.097481 -0.097988 
11.573866 46.935814 50.141788 0.026365 -4.074458 -0.037972 5.680649 7.814809 0.250977 -2.104274 2.161203 1.193318 6.992495 1.504957 2.606496 24.132975 -5.059372 2.155305 0.019669 -0.134859 0.035169 8.093501 -9.365346 3.915198 20.545130 -1.972474 16.083874 -19.783525 -4.834332 -76.261719 21.840319 1.223297 1.605444 1.107859 -11.174546 -22.660727 15.489968 -4.230854 -13.650615 -45.286896 22.094629 76.837669 27.338028 20.060684 4.600970 12.565448 11.418371 26.773485 3.680593 2.970581 -1.129425 -29.232498 14.025229 14.282748 12.198611 -2.672358 -3.366912 4.807047 2.758972 -5.610828 -0.422659 0.133545 -1.134776 5.010475 -14.319057 -0.187281 14.992166 0.650834 -0.501901 -15.703291 -6.911690 1.433636 -6.740827 0.060056 0.094833 
12.071314 46.816418 50.904232 0.013181 -4.454368 -0.040817 5.824383 7.736714 0.054635 -2.128520 2.162327 1.210618 6.827066 1.594217 2.424331 23.905331 -5.245188 2.167171 0.099922 -0.074097 -0.012870 7.735847 -9.457265 3.853023 20.484842 -1.801122 16.267899 -20.007477 -4.827548 -76.193115 21.799984 1.308784 1.471145 1.077760 -11.349177 -22.405661 15.677642 -4.364130 -13.763298 -45.663368 21.967779 77.512520 27.670748 20.086073 4.220665 12.501000 11.251845 26.915981 3.905229 2.727647 -1.412890 -29.279762 14.409590 14.182668 13.353127 -2.631050 -3.397397 5.594635 2.667074 -5.713132 -0.506164 0.124710 -1.140554 5.213683 -14.589657 -0.586061 15.665690 0.707551 -0.713787 -15.763105 -6.741099 2.381293 -7.460023 0.120616 0.196598 
12.599545 46.717293 51.674332 0.022482 -4.775655 -0.035313 6.021872 7.311403 -0.170334 -2.183313 2.279657 1.028705 6.785349 1.664644 2.229039 23.656666 -5.104041 2.204917 0.067346 -0.128790 0.043946 7.127176 -9.354474 3.924843 20.473860 -1.437038 16.538473 -20.443542 -4.722806 -76.058640 21.506042 1.340362 1.304994 1.006125 -11.361269 -22.489162 15.735525 -4.246318 -13.972088 -46.128372 21.759537 78.296753 27.994942 20.224630 4.008708 12.578636 11.128393 27.095863 4.262196 2.236012 -1.648985 -29.497923 14.823883 13.777064 14.671090 -2.628398 -3.274383 5.410382 2.736212 -5.519129 -0.273520 0.125034 -1.035198 5.105995 -14.799050 -1.249040 16.210779 0.658360 -0.964869 -15.260317 -6.290017 3.604073 -8.475582 0.201486 0.391750 
13.050645 46.699764 52.409115 0.015424 -5.131057 -0.040260 6.273347 7.090127 -0.334724 -2.243409 2.390985 0.950445 6.738690 1.753037 2.105063 23.351862 -5.185449 2.230961 0.112774 -0.086204 0.025309 6.630692 -9.464615 3.798927 20.310667 -1.240017 16.597897 -20.669624 -4.728741 -76.005356 21.262270 1.480494 1.191345 1.118532 -11.488577 -22.404373 15.777843 -4.242231 -14.048347 -46.446831 21.641634 78.816635 28.043682 20.263474 3.654722 12.570876 11.014592 27.452808 4.553366 1.841363 -1.549753 -29.395428 15.012946 13.221531 15.545853 -2.326832 -3.082901 5.577709 2.845211 -5.192439 -0.132123 0.101826 -0.846199 5.028993 -15.076687 -1.979629 16.793501 0.741595 -1.101406 -14.860339 -6.121591 4.414499 -9.442843 0.247855 0.639699 
13.616238 46.727360 53.204994 0.020141 -5.327801 -0.038181 6.509562 6.595630 -0.452441 -2.203009 2.534669 0.712930 6.608618 1.875878 1.956409 23.048370 -5.125772 2.225691 0.040666 -0.053140 0.052133 5.935040 -9.400190 3.756518 20.227915 -1.094944 16.759010 -20.995977 -4.729220 -75.774529 20.944069 1.677186 1.042029 1.020359 -11.572607 -22.487926 15.765595 -4.146060 -14.148789 -46.877575 21.599817 79.306328 28.153164 20.376745 3.575882 12.486651 10.838464 27.540325 4.939930 1.309144 -1.502750 -29.231268 15.081979 12.574730 16.664215 -2.157038 -2.819134 4.922334 3.392948 -4.519746 0.052601 0.047498 -0.750888 4.824461 -15.347740 -2.973074 17.013872 0.722932 -1.300713 -13.804042 -5.756031 5.312271 -10.719440 0.002391 1.215091 
14.164334 46.754635 53.948994 0.019355 -5.636878 -0.038788 6.774274 6.465024 -0.554873 -2.321558 2.627867 0.661949 6.643826 1.945163 1.812663 22.682476 -5.188825 2.227117 0.110692 -0.080091 0.011742 5.335432 -9.574642 3.738891 20.077662 -1.050834 16.751431 -21.239027 -4.699767 -75.577782 20.816071 1.773188 0.962378 0.911489 -11.631555 -22.266142 15.765835 -4.178296 -14.224475 -47.202995 21.625412 79.737976 27.991798 20.354717 3.238678 12.532607 10.743681 27.849091 5.298902 1.000919 -1.451994 -29.131250 15.152284 12.205944 17.490652 -2.155415 -2.782727 4.400547 3.706888 -4.192853 -0.133834 0.044862 -0.652607 4.740941 -15.549341 -3.672951 17.248344 0.621865 -1.521110 -12.820688 -5.629114 5.915383 -11.723978 -0.245414 1.914953 
14.793344 46.826805 54.774139 0.020065 -6.028459 -0.035560 7.046196 6.201994 -0.836710 -2.258463 2.713839 0.520136 6.565277 2.116965 1.604092 22.327917 -5.170477 2.296717 0.005836 -0.040282 -0.051459 4.457550 -9.575117 3.694733 19.979568 -0.871520 16.853735 -21.592676 -4.667588 -75.319084 20.596535 1.883485 0.965783 0.785147 -11.595969 -22.255781 15.656452 -4.078963 -14.321870 -47.486084 21.669479 80.089233 27.980259 20.537424 3.030217 12.324327 10.787001 27.997574 5.695848 0.668895 -1.547366 -28.673243 15.314373 11.465119 18.139418 -2.087314 -2.550324 3.437568 4.177324 -3.839276 -0.388575 0.086285 -0.538348 4.705889 -15.614375 -4.513373 17.173056 0.462611 -1.682909 -11.110136 -5.273233 6.248190 -13.033894 -0.798035 3.170122 
15.373376 46.916992 55.570290 0.019857 -6.378224 -0.037942 7.373934 6.052698 -1.150899 -2.442918 2.823501 0.476310 6.589978 2.131870 1.538268 21.986757 -5.084187 2.203214 0.087921 -0.072910 0.000190 3.799921 -9.689406 3.658985 19.913681 -0.806593 16.672726 -21.811867 -4.616370 -74.952644 20.506176 1.891911 0.788393 0.647951 -11.589103 -21.978849 15.732100 -3.948794 -14.382706 -47.651627 21.673147 80.348145 27.635044 20.642895 2.753688 12.331429 10.877954 28.229237 6.010684 0.327599 -1.674711 -28.295971 15.422203 11.091592 18.577225 -2.017239 -2.504793 2.358459 4.461975 -3.562232 -0.440314 0.160246 -0.505146 4.648230 -15.734075 -5.197423 17.397760 0.432161 -1.877932 -9.370440 -5.271202 6.718968 -14.494199 -1.215385 4.215040 
15.966457 47.097584 56.446701 0.016268 -6.646398 -0.040208 7.706424 5.901032 -1.466326 -2.385380 2.870973 0.308940 6.416587 2.333227 1.397529 21.550806 -5.109904 2.249796 0.024622 -0.113050 -0.003134 2.884664 -9.619884 3.502646 19.809233 -0.850434 16.719036 -22.130301 -4.606882 -74.629951 20.175581 1.939785 0.789111 0.747922 -11.590609 -21.985497 15.679690 -3.907413 -14.385612 -47.733879 21.789530 80.471703 27.136581 20.703314 2.711764 12.130589 10.990330 28.204025 6.404661 0.123904 -1.788945 -27.415342 15.333695 10.138383 18.618092 -2.072338 -2.206530 1.210182 5.165665 -3.308858 -0.559166 0.229437 -0.408723 4.335478 -15.866419 -6.140445 17.580198 0.283347 -2.124244 -6.862541 -5.185006 7.224962 -16.438705 -1.762911 5.469030 
16.533455 47.232861 57.231945 0.016664 -6.940437 -0.038180 8.039213 5.742028 -1.822447 -2.560640 2.984411 0.318245 6.479632 2.369481 1.302980 21.131138 -5.081341 2.149719 0.046708 -0.116748 0.013524 2.301224 -9.696873 3.337057 19.674416 -0.770516 16.608599 -22.444159 -4.603256 -74.293968 20.136547 1.931826 0.646555 0.624605 -11.554727 -21.824318 15.650763 -3.787593 -14.412310 -47.792820 21.902397 80.602943 26.680820 20.755901 2.602837 12.208970 11.195923 28.420300 6.671209 -0.115720 -1.979100 -26.685043 15.283639 9.609776 18.694763 -2.020829 -2.125932 0.274602 5.589685 -2.970086 -0.710267 0.283176 -0.389796 3.922348 -16.067078 -6.907467 18.124382 0.228087 -2.430147 -4.312657 -5.377551 7.897416 -18.520304 -2.063654 6.540259 
17.192217 47.446362 58.088356 0.016887 -7.086511 -0.033847 8.262993 5.491748 -2.088141 -2.574123 3.006396 0.210526 6.412761 2.520434 1.160385 20.699291 -5.158269 2.097754 0.069683 -0.150937 -0.045057 1.370400 -9.754436 2.957248 19.435392 -0.784154 16.514071 -22.727209 -4.734677 -74.027687 19.993631 1.957079 0.893879 0.650780 -11.366215 -22.088867 15.535637 -3.813930 -14.419092 -47.656738 22.049583 80.596931 26.127169 20.908958 2.606419 11.956105 11.329329 28.340895 6.949079 -0.466212 -2.075773 -25.584316 15.302717 8.511554 18.470577 -1.863456 -1.767789 -0.612084 6.121196 -2.672445 -0.891138 0.303701 -0.274226 3.078600 -16.130116 -8.294561 19.043922 0.153938 -2.534931 -0.798676 -5.393578 8.482047 -21.193644 -2.612312 8.121988 
